<svg  viewBox="-206.61756173741014 -100.00000000000001 568.0117185956218 200.00000000000003" xmlns="http://www.w3.org/2000/svg" xmlns:xlink="http://www.w3.org/1999/xlink" version="1.1" class="jsx-2263963463 artboard-inner" style="width: 142.11px; height: 50.44px; max-height: 100%;">
                        <g transform="translate(-3.545861036677901 42.28410902698122) scale(1.9699227981543892)" fill="#FFFFFF">
                            <g id="line1">
                                <path d="M59.760-49.968L59.760-50.400L55.440-50.400L51.264-50.400L44.784-50.400L43.704-50.400L33.192-20.016L22.608-50.400L13.176-50.400L9.216-50.400L5.760-50.400L5.760-49.968L5.976-49.968C8.352-49.968 10.296-48.024 10.296-45.648L10.296-9.072C10.296-4.392 6.480-0.432 1.800-0.432L1.800 0L19.152 0L19.152-0.432C14.472-0.432 10.728-4.392 10.728-9.072L10.728-46.008L26.640 0L26.640 0L26.640 0L26.640 0L26.712-0.144L42.696-46.224C42.696-46.008 42.768-45.864 42.768-45.648L42.768-4.752C42.768-2.376 40.824-0.432 38.376-0.432L38.376 0L42.768 0L44.784 0L50.112 0L55.440 0L59.760 0L59.760-0.432C57.384-0.432 55.440-2.376 55.440-4.752L55.440-45.648C55.440-48.024 57.384-49.968 59.760-49.968Z"></path>
                                <path d="M73.368-3.240C73.368-5.904 77.112-6.840 77.112-10.512L77.112-34.128C77.112-34.848 76.608-35.352 75.888-35.352C75.816-35.352 75.744-35.352 75.672-35.352L63.360-33.552L63.360-33.120C65.016-32.832 66.312-31.392 66.312-29.592L66.312-28.800L66.312-9.504C66.312 2.664 78.624 1.440 85.248-1.944L85.248-2.376C84.816-2.160 81.864-0.720 78.264-0.720C75.456-0.720 73.368-1.728 73.368-3.240ZM96.048-5.400L96.048-6.192L96.048-34.128C96.048-34.848 95.544-35.352 94.824-35.352C94.752-35.352 94.680-35.352 94.608-35.352L82.296-33.552L82.296-33.120C83.952-32.832 85.248-31.392 85.248-29.592L85.248-28.800L85.248-1.584L85.248-0.864C85.248-0.216 85.824 0.360 86.472 0.360C86.544 0.360 86.616 0.360 86.688 0.360L99.000-1.440L99.000-1.872C97.344-2.160 96.048-3.672 96.048-5.400Z"></path>
                                <path d="M126.288-25.200C123.624-22.464 120.024-20.160 116.424-17.856C112.896-15.552 109.152-13.176 106.560-10.368C103.608-7.200 102.312-3.816 102.744 0L103.176 0C109.008-3.888 124.272 3.456 129.384-1.440L129.384-11.376L128.952-11.376C123.336-7.848 112.896-13.536 107.352-10.584C109.872-13.104 113.328-15.336 116.712-17.496C124.056-22.248 131.832-27.216 130.896-36.144L130.464-36.144C124.560-32.256 109.368-39.312 104.256-34.416L104.256-24.408L104.688-24.408C110.232-28.008 120.744-22.248 126.288-25.200Z"></path>
                                <path d="M137.592-3.960C137.592-2.232 136.296-0.720 134.640-0.432L134.640 0L151.344 0L151.344-0.432C149.688-0.720 148.392-2.232 148.392-3.960L148.392-34.128C148.392-34.848 147.888-35.352 147.168-35.352C147.096-35.352 147.024-35.352 146.952-35.352L134.640-33.552L134.640-33.120C136.296-32.832 137.592-31.392 137.592-29.592L137.592-3.960ZM148.608-44.784C148.608-47.880 146.088-50.400 142.992-50.400C139.896-50.400 137.448-47.880 137.448-44.784C137.448-41.760 139.896-39.240 142.992-39.240C146.088-39.240 148.608-41.760 148.608-44.784Z"></path>
                                <path d="M171.360-35.640C173.088-35.640 177.192-35.352 177.192-32.832C177.192-30.312 174.096-29.664 174.096-25.920C174.096-22.824 176.616-20.376 179.640-20.376C182.736-20.376 185.256-22.824 185.256-25.920C185.256-30.456 178.704-36.072 171.360-36.072C162.288-36.072 154.944-27.936 154.944-17.856C154.944-7.776 162.288 0.360 171.360 0.360C177.192 0.360 182.376-3.024 185.256-8.208L184.896-8.424C182.880-6.048 180.288-4.608 177.480-4.608C171.000-4.608 165.744-12.312 165.744-21.816C165.744-29.448 169.488-35.640 171.360-35.640Z"></path>
                            </g>
                        </g>
                        <g transform="translate(-206.61755982943598 -100.00128614471292) scale(2.0000126648751206)" id="logomark">
                            <g fill="#FFFFFF">
                                <path d="M20.226 83.024a1.156 1.156 0 0 1-.577-2.16l65.382-37.54a1.157 1.157 0 0 1 1.152 2.006L20.8 82.87a1.14 1.14 0 0 1-.574.154zM10.839 100a1.156 1.156 0 0 1-.58-2.157l75.269-43.602a1.158 1.158 0 0 1 1.161 2.002L11.418 99.845a1.157 1.157 0 0 1-.579.155z"></path>
                                <path d="M86.105 56.398a1.153 1.153 0 0 1-1.152-1.104l-.474-10.281L10.211 2.159A1.156 1.156 0 1 1 11.368.156l74.814 43.17c.343.198.56.555.578.949l.501 10.917a1.151 1.151 0 0 1-1.102 1.206h-.054z"></path>
                                <path d="M66.4 45.107c-.193 0-.393-.05-.573-.153L42.042 31.323a1.154 1.154 0 0 1-.428-1.578 1.152 1.152 0 0 1 1.578-.428L66.98 42.948a1.156 1.156 0 0 1-.58 2.159zM33.119 26.038a1.16 1.16 0 0 1-.574-.153L.772 7.681a1.157 1.157 0 0 1-.008-2.002l9.442-5.52a1.156 1.156 0 1 1 1.167 1.997L3.656 6.667l30.04 17.211a1.155 1.155 0 0 1-.577 2.16zM32.971 53.365a1.14 1.14 0 0 1-.577-.156l-12.691-7.326a1.156 1.156 0 1 1 1.157-2.003l12.692 7.326a1.157 1.157 0 0 1-.581 2.159zM32.896 64.195a1.16 1.16 0 0 1-.574-.153L10.264 51.4a1.156 1.156 0 1 1 1.15-2.005l22.06 12.641a1.155 1.155 0 0 1-.578 2.159z"></path>
                                <path d="M10.814 51.554a1.155 1.155 0 0 1-1.156-1.156l-.012-27.569a1.157 1.157 0 1 1 2.312 0l.013 27.568c0 .639-.517 1.157-1.157 1.157z"></path>
                                <path d="M10.838 100c-.212 0-.425-.059-.611-.174L.545 93.8A1.16 1.16 0 0 1 0 92.815l.191-86.14a1.157 1.157 0 0 1 1.156-1.154h.002A1.157 1.157 0 0 1 2.503 6.68l-.19 85.497 7.367 4.586-.018-35.632c0-.64.517-1.157 1.155-1.157h.001c.638 0 1.157.516 1.157 1.154l.02 37.714A1.155 1.155 0 0 1 10.838 100zM57.038 50.48a1.14 1.14 0 0 1-.573-.153l-14.42-8.262a1.154 1.154 0 0 1-.428-1.578 1.152 1.152 0 0 1 1.578-.428l14.42 8.263c.556.317.746 1.023.43 1.579-.216.37-.607.579-1.007.579zM23.803 31.44a1.15 1.15 0 0 1-.574-.153l-13.002-7.455a1.154 1.154 0 0 1-.428-1.578 1.152 1.152 0 0 1 1.578-.428l13.002 7.455a1.156 1.156 0 0 1-.576 2.159zM23.66 69.646a1.16 1.16 0 0 1-.574-.153l-12.843-7.358a1.155 1.155 0 0 1-.428-1.579 1.15 1.15 0 0 1 1.578-.427l12.843 7.358a1.158 1.158 0 0 1-.576 2.159z"></path>
                                <path d="M20.231 94.557a1.157 1.157 0 0 1-1.156-1.156l-.013-26.885c0-.638.518-1.157 1.157-1.157.638 0 1.156.52 1.156 1.157l.013 26.884c0 .639-.518 1.157-1.157 1.157zM20.208 46.038a1.156 1.156 0 0 1-1.156-1.157l-.008-16.667a1.157 1.157 0 1 1 2.313 0l.008 16.667c0 .639-.517 1.157-1.157 1.157zM42.627 70.134c-.212 0-.424-.059-.611-.177l-9.682-6.025a1.16 1.16 0 0 1-.371-1.595 1.159 1.159 0 0 1 1.592-.371l7.914 4.929-.012-36.568a1.157 1.157 0 0 1 2.313 0l.013 38.651a1.156 1.156 0 0 1-1.156 1.156z"></path>
                                <path d="M32.945 64.105h-.002a1.159 1.159 0 0 1-1.154-1.159l.024-10.744a1.155 1.155 0 0 1 1.156-1.154h.002c.639 0 1.155.52 1.154 1.158l-.024 10.745c0 .637-.518 1.154-1.156 1.154z"></path>
                                <path d="M32.969 53.36h-.003a1.156 1.156 0 0 1-1.153-1.16l.016-5.81a1.157 1.157 0 0 1 1.157-1.153h.003a1.157 1.157 0 0 1 1.153 1.16l-.016 5.812a1.156 1.156 0 0 1-1.157 1.151zM52.022 64.69c-.64 0-1.157-.518-1.157-1.156l-.011-17.086c0-.639.517-1.157 1.154-1.157h.002c.64 0 1.156.517 1.156 1.155l.012 17.088a1.157 1.157 0 0 1-1.156 1.156zM20.22 71.62c-.401 0-.791-.21-1.004-.583a1.153 1.153 0 0 1 .427-1.576l12.902-7.404a1.156 1.156 0 0 1 1.152 2.006l-12.902 7.403c-.182.104-.38.154-.575.154zM20.209 44.744a1.155 1.155 0 0 1-.59-2.151l22.406-13.261a1.157 1.157 0 0 1 1.179 1.99L20.798 44.583a1.157 1.157 0 0 1-.589.161z"></path>
                                <path d="M32.986 47.55a1.155 1.155 0 0 1-.591-2.151l9.469-5.607a1.156 1.156 0 0 1 1.178 1.99l-9.468 5.607a1.156 1.156 0 0 1-.588.161z"></path>
                                <path d="M28.008 50.497a1.154 1.154 0 0 1-.591-2.15l4.978-2.947a1.157 1.157 0 0 1 1.179 1.989l-4.978 2.947a1.136 1.136 0 0 1-.588.161zM20.204 33.533a1.155 1.155 0 0 1-.581-2.156l3.601-2.093a1.155 1.155 0 0 1 1.58.419 1.155 1.155 0 0 1-.419 1.58l-3.602 2.093a1.144 1.144 0 0 1-.579.157z"></path>
                                <path d="M23.806 31.44a1.157 1.157 0 0 1-.582-2.157l9.316-5.403a1.157 1.157 0 0 1 1.162 2.001l-9.316 5.403a1.15 1.15 0 0 1-.58.156zM52.016 53.365a1.155 1.155 0 0 1-.576-2.159l14.388-8.258a1.157 1.157 0 0 1 1.152 2.006l-14.389 8.258a1.166 1.166 0 0 1-.575.153z"></path>
                            </g>
                        </g>
                    </svg>